<svg xmlns="http://www.w3.org/2000/svg"  viewBox="0 0 48 48" width="96px" height="96px"><path d="M 10 6 C 7.791 6 6 7.791 6 10 L 6 38 C 6 40.209 7.791 42 10 42 L 38 42 C 40.209 42 42 40.209 42 38 L 42 10 C 42 7.791 40.209 6 38 6 L 10 6 z M 10 9 L 38 9 C 38.551 9 39 9.449 39 10 L 39 38 C 39 38.551 38.551 39 38 39 L 10 39 C 9.449 39 9 38.551 9 38 L 9 10 C 9 9.449 9.449 9 10 9 z M 32.583984 21.976562 C 31.841984 21.976562 31.138609 22.056797 30.474609 22.216797 C 29.810609 22.376797 29.226656 22.624891 28.722656 22.962891 C 28.218656 23.300891 27.818391 23.733813 27.525391 24.257812 C 27.232391 24.781812 27.087891 25.407719 27.087891 26.136719 C 27.087891 27.067719 27.355578 27.861531 27.892578 28.519531 C 28.429578 29.177531 29.245844 29.733453 30.339844 30.189453 C 30.769844 30.365453 31.168063 30.538031 31.539062 30.707031 C 31.910062 30.876031 32.231953 31.052375 32.501953 31.234375 C 32.771953 31.416375 32.986578 31.616078 33.142578 31.830078 C 33.298578 32.044078 33.376953 32.2895 33.376953 32.5625 C 33.376953 32.7645 33.327469 32.953 33.230469 33.125 C 33.133469 33.297 32.984156 33.447219 32.785156 33.574219 C 32.586156 33.701219 32.340922 33.800094 32.044922 33.871094 C 31.748922 33.942094 31.400906 33.978516 31.003906 33.978516 C 30.325906 33.978516 29.656188 33.860047 28.992188 33.623047 C 28.328188 33.386047 27.712484 33.029688 27.146484 32.554688 L 27.146484 35.679688 C 27.654484 35.939688 28.254266 36.133672 28.947266 36.263672 C 29.640266 36.393672 30.370672 36.457031 31.138672 36.457031 C 31.887672 36.457031 32.600437 36.385188 33.273438 36.242188 C 33.946438 36.099187 34.536922 35.864156 35.044922 35.535156 C 35.552922 35.206156 35.955953 34.777094 36.251953 34.246094 C 36.547953 33.715094 36.695312 33.058344 36.695312 32.277344 C 36.695312 31.711344 36.610406 31.216063 36.441406 30.789062 C 36.272406 30.362063 36.026984 29.982391 35.708984 29.650391 C 35.390984 29.318391 35.0085 29.021812 34.5625 28.757812 C 34.1165 28.493813 33.612734 28.243766 33.052734 28.009766 C 32.641734 27.840766 32.275219 27.676578 31.949219 27.517578 C 31.623219 27.358578 31.347141 27.195297 31.119141 27.029297 C 30.891141 26.863297 30.715797 26.687953 30.591797 26.501953 C 30.467797 26.315953 30.40625 26.105094 30.40625 25.871094 C 30.40625 25.656094 30.461266 25.463016 30.572266 25.291016 C 30.683266 25.119016 30.840016 24.970656 31.041016 24.847656 C 31.242016 24.724656 31.490203 24.627594 31.783203 24.558594 C 32.076203 24.489594 32.401766 24.455078 32.759766 24.455078 C 33.019766 24.455078 33.295938 24.476625 33.585938 24.515625 C 33.875937 24.554625 34.166984 24.613312 34.458984 24.695312 C 34.750984 24.777312 35.0355 24.879906 35.3125 25.003906 C 35.5895 25.127906 35.846078 25.270594 36.080078 25.433594 L 36.080078 22.513672 C 35.605078 22.331672 35.084484 22.197375 34.521484 22.109375 C 33.958484 22.021375 33.312984 21.976562 32.583984 21.976562 z M 14.773438 22.212891 L 14.773438 24.78125 L 18.748047 24.78125 L 18.748047 36.216797 L 21.912109 36.216797 L 21.912109 24.78125 L 25.90625 24.78125 L 25.90625 22.212891 L 14.773438 22.212891 z"/></svg>